<?xml version="1.0" standalone="no"?>
<!DOCTYPE svg PUBLIC "-//W3C//DTD SVG 20010904//EN"
 "http://www.w3.org/TR/2001/REC-SVG-20010904/DTD/svg10.dtd">
<svg version="1.0" xmlns="http://www.w3.org/2000/svg"
 width="810.000000pt" height="810.000000pt" viewBox="0 0 810.000000 810.000000"
 preserveAspectRatio="xMidYMid meet">

<g transform="translate(0.000000,810.000000) scale(0.100000,-0.100000)"
fill="#000000" stroke="none">
<path d="M1807 7622 c-15 -17 -17 -66 -17 -495 l0 -476 -137 -3 -138 -3 -3
-117 c-1 -65 -4 -118 -6 -118 -46 0 -476 -104 -517 -126 -38 -19 -41 -48 -29
-304 19 -414 38 -643 80 -967 60 -458 122 -754 208 -988 22 -61 74 -213 115
-340 215 -661 491 -1209 801 -1589 45 -54 104 -128 131 -164 51 -68 77 -91
253 -225 l102 -77 0 -60 c0 -157 67 -359 158 -480 45 -58 50 -70 30 -70 -28 0
-398 -41 -471 -51 -43 -6 -84 -17 -91 -24 -7 -7 -46 -16 -87 -19 -196 -18
-552 -68 -699 -98 l-55 -11 35 -8 c73 -17 342 -49 530 -64 303 -24 305 -24
283 -40 -10 -7 -45 -21 -76 -30 -32 -9 -55 -21 -52 -26 9 -13 129 -47 230 -63
249 -40 417 -49 1080 -54 1076 -8 1138 -8 1265 11 109 16 298 33 640 57 140
11 278 31 301 46 5 3 9 14 9 24 0 20 -5 20 315 40 187 12 321 29 525 66 147
27 360 82 360 93 0 4 -44 13 -97 20 -510 66 -499 65 -783 65 -151 1 -288 -3
-303 -7 -18 -5 -26 -4 -23 2 11 17 -171 45 -436 66 -43 4 -78 11 -78 16 0 5 3
9 6 9 4 0 68 14 143 30 380 85 641 216 875 440 134 130 250 276 375 472 53 84
126 182 177 238 420 464 607 970 698 1890 24 243 28 328 17 334 -6 4 -128 -27
-273 -68 -354 -99 -318 -94 -307 -47 5 21 13 50 18 64 21 54 81 351 105 517
61 418 97 838 100 1140 l1 215 -35 17 c-43 21 -225 67 -385 99 -66 12 -125 27
-131 31 -7 5 -12 49 -13 115 -1 59 -4 110 -7 115 -3 4 -61 8 -130 8 l-124 0 0
475 c0 462 -1 476 -20 495 -20 20 -33 20 -2223 20 -2122 0 -2205 -1 -2220 -18z
m4431 -604 l2 -586 73 -12 c279 -46 640 -124 730 -159 l27 -11 0 -155 c0 -240
-32 -642 -81 -1025 -25 -198 -78 -480 -91 -480 -5 0 -7 4 -4 8 3 5 18 103 35
218 62 430 90 753 98 1120 6 266 5 272 -14 283 -33 17 -276 78 -423 105 -365
68 -374 69 -655 75 l-270 6 -3 23 -3 22 260 0 261 0 5 23 c3 12 4 139 3 282
l-3 260 -2158 3 -2157 2 2 -282 3 -283 243 -3 c229 -2 242 -3 242 -21 0 -10
-7 -22 -16 -25 -9 -3 -115 -6 -237 -6 -185 0 -250 -4 -387 -25 -279 -42 -665
-128 -694 -155 -12 -11 10 -568 34 -860 19 -228 51 -523 70 -645 15 -91 11
-133 -5 -65 -59 242 -133 1018 -138 1430 l-2 175 84 28 c105 34 354 88 572
124 l167 28 6 65 c3 36 6 300 6 588 l0 522 2208 -2 2207 -3 3 -587z m-749
-135 c-65 -69 -293 -366 -447 -583 -81 -114 -132 -166 -140 -142 -2 7 -8 9
-14 6 -5 -3 1 11 14 32 42 68 42 68 27 58 -7 -4 -24 -21 -38 -36 -13 -16 -26
-27 -28 -24 -7 7 28 70 51 90 18 16 16 15 -13 -2 -19 -11 -36 -28 -37 -38 -2
-9 -13 -27 -25 -38 -23 -22 -17 -4 9 27 23 27 1 20 -29 -9 l-27 -26 2 49 c4
57 22 129 42 161 10 14 11 22 3 22 -6 0 -8 7 -4 17 7 20 -20 -3 -137 -117 -43
-41 -78 -71 -78 -66 0 17 126 158 200 225 108 95 237 183 410 279 145 80 281
151 290 152 2 0 -12 -17 -31 -37z m-2777 -64 c98 -51 225 -124 281 -164 120
-85 230 -183 224 -199 -2 -6 -1 -18 3 -26 4 -8 10 -27 14 -42 5 -23 3 -28 -12
-28 -32 0 -106 55 -147 108 -21 29 -40 52 -42 52 -2 0 13 -33 33 -72 l35 -73
-35 40 -35 40 29 -60 c35 -74 47 -123 28 -109 -8 5 -5 1 5 -8 11 -10 14 -18 8
-18 -6 0 -11 -7 -11 -16 0 -8 -4 -12 -10 -9 -5 3 -10 -1 -10 -9 0 -9 -8 -16
-19 -16 -18 0 -57 38 -108 106 -13 16 -2 -13 24 -64 25 -51 44 -94 41 -97 -3
-3 -21 21 -40 52 -273 451 -345 564 -423 667 -15 20 -24 36 -20 36 4 0 88 -41
187 -91z m2857 29 c61 -296 76 -721 36 -1002 -22 -160 -71 -381 -112 -506 -45
-141 -57 -116 -14 32 66 230 97 430 112 708 12 233 8 334 -21 565 -11 82 -20
170 -20 194 l0 44 -21 -27 c-12 -15 -23 -25 -26 -22 -6 6 38 66 48 66 4 0 12
-24 18 -52z m-3189 7 c8 -10 11 -51 8 -135 -4 -150 -4 -150 -132 -150 -125 0
-126 2 -126 147 0 63 5 123 10 134 10 17 22 19 119 19 83 0 111 -3 121 -15z
m198 -92 c84 -131 95 -151 87 -163 -9 -14 -35 -12 -35 3 0 8 -3 8 -9 -2 -7
-11 -10 -10 -14 5 -2 10 -5 -15 -5 -56 -1 -78 24 -238 27 -171 2 64 10 26 16
-79 4 -58 9 -125 11 -150 l4 -45 -15 30 c-8 17 -21 46 -30 65 -9 21 -12 25 -9
10 3 -14 17 -49 30 -78 13 -29 26 -69 29 -90 6 -35 6 -36 -10 -17 -16 19 -16
19 -9 -10 4 -16 13 -50 20 -73 13 -45 9 -77 -7 -66 -6 3 -7 -5 -4 -19 8 -30
-10 -44 -25 -20 -9 15 -10 14 -5 -7 4 -14 9 -34 11 -45 l5 -20 -17 20 c-9 11
-34 56 -55 99 -21 44 -39 76 -39 70 0 -5 7 -49 15 -99 18 -110 19 -136 3 -132
-7 1 -15 -13 -18 -33 -5 -33 -7 -30 -27 45 -12 44 -31 134 -43 200 -12 66 -23
127 -24 135 -2 8 -4 -23 -5 -70 -1 -119 15 -240 54 -393 21 -83 30 -138 25
-151 -6 -17 -10 -11 -23 35 -29 99 -57 224 -72 325 -20 136 -20 523 0 669 23
160 73 385 86 385 4 0 38 -48 77 -107z m321 67 c36 -45 38 -46 109 -25 41 12
52 20 52 36 0 15 6 20 23 17 21 -3 22 -7 25 -122 l3 -119 -23 15 c-19 13 -24
26 -26 73 l-3 57 -32 -6 c-18 -4 -44 -9 -58 -12 -18 -4 -39 3 -72 24 -25 16
-67 37 -93 47 l-47 18 24 18 c41 32 81 25 118 -21z m398 -60 c4 -147 -1 -140
93 -140 l79 0 3 118 c3 109 4 117 23 117 19 0 20 -8 23 -127 l3 -126 -27 -21
c-22 -18 -41 -21 -111 -21 -76 0 -86 2 -108 25 -24 23 -25 30 -25 143 0 65 3
122 7 126 4 4 14 5 23 4 12 -3 15 -22 17 -98z m551 78 c-3 -21 -9 -23 -75 -26
l-73 -3 0 -34 0 -35 69 0 c86 0 96 -10 96 -97 0 -46 -4 -66 -15 -73 -8 -6 -51
-9 -95 -8 -74 3 -80 5 -83 26 -3 21 0 22 73 22 l76 0 -3 38 -3 37 -72 3 -72 3
-11 40 c-11 42 -6 94 12 117 7 8 39 12 95 12 82 0 84 -1 81 -22z m639 6 c9
-24 -15 -34 -84 -34 -67 0 -77 -6 -67 -45 6 -24 10 -25 73 -25 39 0 72 -5 79
-12 7 -7 12 -40 12 -80 0 -84 -9 -90 -123 -86 -76 3 -82 5 -85 26 -3 21 -1 22
76 22 78 0 80 1 86 26 11 42 -8 54 -84 54 -53 0 -69 4 -74 16 -11 28 -6 130 6
142 7 7 44 12 95 12 67 0 85 -3 90 -16z m316 10 c3 -4 2 -15 -4 -25 -8 -15
-21 -19 -69 -19 l-60 0 0 -35 0 -35 69 0 c44 0 72 -5 79 -13 20 -24 -3 -36
-73 -39 l-70 -3 0 -35 0 -35 98 -3 c76 -2 97 -6 97 -17 0 -25 -36 -35 -124
-35 -121 0 -126 6 -126 151 0 147 1 149 99 149 43 0 81 -3 84 -6z m485 -3 c9
-5 -8 -21 -59 -51 -119 -71 -119 -71 -143 -54 -11 8 -24 14 -27 14 -4 0 -23
-22 -43 -50 -38 -53 -50 -60 -60 -34 -7 19 74 164 93 164 7 0 29 -14 48 -30
l35 -31 44 41 c43 40 82 51 112 31z m602 -30 c8 -17 0 -32 -49 -93 -32 -40
-74 -91 -93 -112 l-35 -40 -37 67 c-26 46 -36 76 -34 97 l3 32 39 -51 c21 -28
41 -51 45 -51 3 0 17 17 31 37 44 65 100 133 110 133 5 0 14 -9 20 -19z m60
-197 c0 -62 -1 -65 -22 -62 -20 3 -23 10 -26 52 -4 60 2 76 28 76 18 0 20 -6
20 -66z m-4170 -93 l0 -79 -72 -12 c-40 -6 -94 -15 -119 -19 l-47 -8 -4 91
c-3 50 -3 94 -1 99 2 4 58 7 124 7 l119 0 0 -79z m4730 -20 l0 -100 -32 5
c-18 3 -71 11 -118 17 l-85 12 -3 69 c-2 38 -1 75 2 83 4 10 33 13 121 13
l115 0 0 -99z m-1812 -96 l-27 -23 -665 1 c-638 2 -665 3 -685 21 -12 11 -21
22 -21 25 0 3 321 5 712 3 l713 -3 -27 -24z m-558 -88 c36 -8 81 -22 100 -31
l35 -15 -40 1 c-48 2 -95 -19 -74 -33 9 -5 -14 -9 -61 -9 -52 0 -70 -3 -60
-10 8 -5 26 -10 39 -10 24 0 24 0 5 -18 -10 -9 -57 -49 -104 -88 -129 -108
-220 -210 -203 -227 10 -11 22 3 17 18 -4 9 1 12 13 11 10 -2 24 1 31 7 8 6
12 6 12 -1 0 -6 -7 -15 -15 -20 -9 -4 -17 -18 -18 -30 -1 -14 -6 -21 -14 -17
-12 4 -18 -5 -38 -63 -3 -9 -11 -6 -26 9 l-21 21 -28 -27 c-16 -16 -28 -31
-27 -34 3 -8 0 -9 -80 -32 -37 -10 -93 -19 -123 -19 -57 0 -91 -12 -71 -24 25
-16 8 -26 -41 -27 -102 -1 -97 -16 7 -23 163 -11 187 -16 170 -32 -9 -10 -41
-14 -102 -15 -92 -1 -151 -12 -123 -22 8 -3 128 -8 265 -11 138 -3 263 -8 279
-12 l28 -7 -37 -13 c-29 -9 -69 -11 -164 -5 -138 9 -306 -1 -391 -23 -30 -8
-56 -13 -58 -11 -1 1 4 65 13 141 31 271 130 584 198 628 36 24 169 65 259 81
103 18 355 13 448 -8z m1350 -57 c-7 -33 -15 -58 -18 -55 -3 2 1 32 8 65 7 33
15 58 18 55 3 -2 -1 -32 -8 -65z m-3150 -45 l0 -25 -299 0 c-164 0 -345 -5
-402 -10 -155 -16 -337 -50 -438 -82 l-34 -11 7 -115 c3 -64 8 -118 11 -120 2
-3 268 -5 589 -5 l585 -1 6 -28 c3 -15 8 -41 11 -58 l6 -30 -599 -2 -598 -3 3
-70 c2 -38 6 -78 8 -87 5 -17 43 -18 613 -18 l609 0 15 -60 15 -60 -624 0
-625 0 7 -52 c4 -29 10 -72 13 -94 l6 -42 599 -5 c329 -3 600 -8 602 -10 2 -2
-4 -28 -14 -58 l-19 -54 -581 -3 -581 -2 6 -38 c3 -20 11 -68 17 -106 l11 -69
533 0 c432 0 532 -2 532 -13 0 -7 -5 -36 -11 -64 l-11 -50 -514 0 -514 0 0
-22 c0 -30 28 -190 35 -196 2 -3 220 -4 483 -3 l479 2 -7 -51 c-4 -29 -13 -56
-21 -61 -12 -7 -905 -16 -934 -9 -5 1 -15 3 -22 3 -14 0 -25 46 -57 237 -69
406 -116 952 -116 1336 l0 122 78 21 c90 25 329 68 440 80 42 5 218 9 390 10
l312 1 0 -25z m4010 15 c144 -13 275 -33 415 -65 183 -41 169 -33 173 -96 10
-150 -29 -712 -69 -999 -53 -391 -108 -634 -144 -638 -23 -3 -19 -3 -567 -3
l-516 0 -4 53 c-3 29 -3 57 0 61 2 5 243 5 535 1 451 -6 534 -5 543 7 11 14
44 166 44 202 0 16 -34 17 -579 17 l-578 0 -15 59 -14 59 30 5 c17 3 286 5
599 4 335 0 571 3 576 9 9 10 31 137 31 178 l0 26 -648 0 -649 0 -12 24 c-11
19 -11 30 0 60 l13 36 86 1 c47 1 292 3 545 3 253 1 510 2 571 4 l112 2 5 33
c4 17 9 60 13 95 l7 62 -641 0 -640 0 5 23 c3 12 9 39 14 60 l10 37 628 0 628
0 7 53 c3 28 6 69 6 90 l0 37 -618 0 -618 0 6 50 c3 27 9 52 13 56 3 3 279 7
614 9 l608 3 7 113 c4 63 4 117 0 121 -15 14 -210 57 -407 89 -38 6 -234 14
-435 18 l-365 6 -3 23 -3 22 283 0 c156 0 335 -5 398 -10z m-1925 -10 c-3 -5
-14 -10 -24 -10 -10 0 -36 -12 -57 -26 l-39 -26 34 36 c24 25 44 36 64 36 16
0 26 -4 22 -10z m-1091 -18 c-119 -80 -153 -104 -164 -116 -10 -13 -7 -14 21
-6 18 5 34 8 35 7 2 -2 -10 -43 -27 -92 -16 -50 -43 -151 -58 -225 -34 -160
-55 -238 -67 -249 -5 -5 -46 -21 -90 -35 -98 -32 -169 -74 -281 -164 -45 -37
-89 -67 -95 -67 -9 0 -12 15 -11 48 1 51 -13 64 -23 20 -3 -16 -7 -34 -10 -41
-5 -19 6 -65 22 -86 13 -18 19 -14 106 70 109 106 186 154 311 199 74 26 96
39 114 65 l22 32 -1 -45 c0 -44 -2 -45 -37 -52 -67 -13 -186 -64 -263 -115
-68 -45 -250 -221 -246 -238 6 -21 -78 -182 -94 -182 -4 0 -8 17 -8 38 0 20
-3 55 -7 77 l-7 40 -7 -30 c-4 -16 -7 -61 -8 -99 -1 -51 -12 -103 -45 -205
-48 -148 -89 -340 -107 -495 -11 -96 -8 -240 6 -281 l7 -20 -13 20 c-21 33
-23 251 -4 410 51 433 115 715 217 955 136 321 351 587 625 772 91 61 184 111
192 103 3 -3 1 -9 -5 -13z m806 -10 c0 -5 -10 -17 -22 -28 -13 -10 -18 -12
-11 -5 6 7 9 20 6 27 -3 8 1 14 11 14 9 0 16 -4 16 -8z m405 -22 c110 -38 336
-168 307 -178 -5 -1 -55 22 -110 54 -56 31 -138 69 -184 85 -76 26 -84 27
-100 12 -17 -15 -14 -18 52 -50 53 -26 77 -44 98 -75 73 -111 -6 -256 -189
-347 -104 -52 -156 -55 -181 -11 -14 24 -24 30 -51 30 -45 0 -66 -18 -73 -60
-9 -53 18 -81 82 -85 88 -7 389 -116 381 -139 -2 -6 -19 -14 -38 -17 -27 -6
-52 0 -126 32 -50 21 -134 50 -185 64 -51 14 -105 32 -120 40 -26 13 -28 13
-28 -5 0 -13 10 -21 33 -25 101 -22 385 -130 373 -142 -4 -4 -109 27 -271 78
-16 5 -70 16 -119 24 -49 8 -91 17 -94 20 -8 8 105 245 166 348 30 50 79 124
108 163 52 69 186 204 203 204 4 0 34 -9 66 -20z m-255 -43 c0 -2 -10 -12 -22
-23 l-23 -19 19 23 c18 21 26 27 26 19z m-1026 -69 c-20 -58 -51 -182 -69
-277 -16 -81 -43 -168 -44 -141 -4 78 50 328 89 416 25 57 44 58 24 2z m681
-98 c-3 -5 -12 -10 -18 -10 -7 0 -6 4 3 10 19 12 23 12 15 0z m-98 -16 c-3 -3
-12 -4 -19 -1 -8 3 -5 6 6 6 11 1 17 -2 13 -5z m67 -29 c-20 -30 -20 -30 -20
-6 0 11 4 18 7 15 4 -2 10 0 14 6 3 5 8 10 11 10 2 0 -3 -11 -12 -25z m-47
-72 c-21 -37 -46 -58 -28 -25 7 14 8 23 1 27 -15 9 -12 38 3 32 6 -2 11 -10 9
-17 -2 -11 0 -11 11 -1 8 6 13 22 11 34 -4 20 -4 20 4 2 6 -13 3 -29 -11 -52z
m-40 -37 c-1 -27 -16 -48 -30 -39 -5 3 -7 1 -4 -4 7 -11 -41 -73 -56 -73 -4 0
-5 5 -1 12 4 7 3 8 -5 4 -6 -4 -9 -11 -6 -16 3 -5 -8 -16 -24 -25 -41 -20 -61
-19 -31 2 14 10 27 17 30 17 3 0 13 18 23 39 14 33 19 37 32 27 12 -10 15 -10
15 2 0 7 9 22 21 31 11 10 18 24 16 31 -3 7 1 13 8 13 8 0 13 -10 12 -21z
m-111 -55 c-15 -15 -16 -14 -12 9 2 14 5 30 6 35 0 6 5 2 11 -9 9 -14 7 -22
-5 -35z m-26 9 c0 -5 -5 -10 -11 -10 -5 0 -7 5 -4 10 3 6 8 10 11 10 2 0 4 -4
4 -10z m489 -112 c12 -31 -2 -44 -33 -30 -18 8 -23 16 -19 31 7 28 41 27 52
-1z m-1032 -50 c-3 -8 -6 -5 -6 6 -1 11 2 17 5 13 3 -3 4 -12 1 -19z m758
-268 c321 -55 518 -152 721 -355 90 -91 164 -188 152 -200 -12 -12 -161 -58
-273 -85 -152 -36 -225 -65 -315 -125 -255 -169 -311 -461 -101 -522 71 -20
208 -12 305 18 60 18 79 30 132 83 52 53 65 73 83 130 12 38 21 92 21 122 0
42 4 55 19 64 25 13 156 60 168 60 12 0 75 -86 102 -138 12 -23 21 -55 21 -72
0 -16 2 -30 5 -30 18 0 66 34 90 62 l28 33 -6 -54 c-4 -29 -13 -64 -22 -77 -8
-13 -12 -24 -7 -24 18 0 158 103 189 138 l32 36 6 -26 c8 -30 2 -140 -9 -178
l-8 -25 21 25 c18 22 21 23 21 6 0 -11 -14 -44 -31 -75 -22 -39 -26 -51 -13
-40 40 34 47 31 24 -10 -13 -23 -31 -48 -41 -56 -18 -17 -125 -37 -294 -56
-60 -6 -111 -13 -113 -14 -1 -1 2 -13 7 -27 9 -24 9 -24 -92 -41 -56 -9 -136
-27 -177 -40 l-75 -24 60 -8 c33 -4 69 -11 80 -15 17 -6 14 -9 -15 -13 -140
-22 -195 -33 -194 -42 1 -6 25 -17 55 -26 45 -14 50 -17 31 -23 -12 -4 -22
-13 -22 -21 0 -14 51 -23 160 -28 l55 -2 -88 -34 c-95 -37 -110 -52 -26 -27
29 9 55 14 57 11 7 -6 -91 -49 -170 -75 -98 -32 -103 -40 -23 -40 46 0 65 -4
55 -10 -37 -21 -393 -143 -484 -166 -127 -31 -268 -42 -322 -24 -25 9 -84 13
-164 12 -183 -3 -306 35 -477 147 -48 32 -98 61 -110 65 -26 8 -59 51 -68 89
-5 17 -14 27 -25 27 -10 0 -28 9 -41 20 l-24 20 25 21 c61 50 98 88 93 93 -4
3 -27 7 -52 7 -25 1 -59 4 -76 8 -29 7 -29 7 25 26 l55 18 -35 15 c-40 16
-144 21 -212 9 l-47 -8 -6 45 c-4 26 -12 46 -17 46 -5 0 -7 4 -4 9 3 5 -10 12
-29 15 -35 7 -35 7 -35 62 0 85 18 186 61 338 21 76 39 148 39 158 0 11 4 18
8 16 4 -1 46 -23 92 -47 l85 -44 0 -116 c0 -109 2 -119 27 -163 33 -54 97 -91
192 -109 74 -13 116 -6 156 28 56 47 75 97 75 198 0 118 -24 173 -110 253 -74
70 -118 95 -270 158 -158 64 -150 56 -131 137 51 220 246 410 502 487 178 53
476 62 719 20z m1221 -115 c5 -13 -16 -45 -29 -45 -12 0 -16 34 -6 46 15 18
28 18 35 -1z m306 -40 c3 -14 2 -25 -2 -25 -9 0 -20 25 -20 46 0 23 17 7 22
-21z m33 -86 c4 -15 2 -30 -3 -33 -12 -7 -35 52 -26 66 8 13 21 -2 29 -33z
m49 -152 c55 -180 85 -417 88 -687 3 -212 -18 -291 -119 -443 -53 -80 -230
-262 -284 -291 -23 -13 2 18 82 100 170 174 239 277 274 414 19 73 31 254 20
296 -7 27 -8 25 -25 -34 -17 -63 -39 -103 -25 -47 50 203 44 375 -20 615 -50
185 -42 248 9 77z m-2774 -267 c19 -11 31 -19 25 -19 -5 0 -26 8 -45 19 -19
11 -30 19 -25 19 6 0 26 -8 45 -19z m1925 5 c-36 -15 -103 -30 -93 -20 6 7 95
33 113 33 6 0 -3 -5 -20 -13z m606 -151 c11 -26 18 -49 16 -51 -2 -2 -14 19
-25 47 -11 27 -19 50 -16 50 3 0 14 -21 25 -46z m-4124 14 c-3 -8 -6 -5 -6 6
-1 11 2 17 5 13 3 -3 4 -12 1 -19z m1689 -94 c-8 -33 -18 -97 -22 -143 -5 -63
-9 -79 -17 -66 -20 37 5 224 36 263 17 22 18 6 3 -54z m1585 46 c36 -20 16
-90 -26 -90 -24 0 -65 34 -65 54 0 17 33 46 52 46 11 0 28 -5 39 -10z m-1501
-40 c22 -22 18 -45 -10 -60 -27 -14 -69 5 -70 33 0 10 38 47 50 47 6 0 19 -9
30 -20z m1264 -6 c19 -18 19 -20 6 -45 -13 -22 -52 -25 -69 -5 -19 22 6 61 41
65 4 1 14 -6 22 -15z m-1094 -9 c15 -18 7 -43 -16 -52 -24 -9 -46 24 -33 48
12 23 32 24 49 4z m2227 -57 c-3 -8 -6 -5 -6 6 -1 11 2 17 5 13 3 -3 4 -12 1
-19z m2074 -109 c-33 -132 -82 -244 -145 -335 -25 -35 -41 -64 -36 -64 12 0
89 75 118 115 l21 30 1 -27 c0 -60 -81 -225 -147 -299 -24 -26 -30 -39 -20
-39 15 0 88 29 74 30 -4 0 12 26 35 57 50 66 58 55 25 -39 -33 -93 -81 -170
-156 -250 -35 -38 -62 -71 -59 -73 3 -3 26 3 51 12 25 9 50 14 54 10 14 -15
-32 -79 -126 -176 -53 -53 -116 -129 -141 -169 -25 -39 -48 -71 -51 -71 -4 -1
-3 18 1 42 5 23 11 80 15 127 3 47 8 96 11 110 3 16 -8 4 -30 -33 -41 -67
-116 -210 -116 -221 0 -17 -90 -133 -140 -181 l-52 -50 6 80 6 80 -48 -140
c-62 -177 -146 -347 -112 -225 17 61 60 273 56 277 -2 2 -23 -32 -48 -74 -24
-43 -71 -125 -104 -182 -58 -101 -135 -201 -156 -201 -17 0 -1 87 27 148 14
30 24 57 22 59 -4 4 -100 -189 -137 -275 -13 -29 -24 -51 -26 -49 -5 4 13 61
50 166 36 98 28 112 -14 26 -24 -49 -35 -64 -38 -51 -4 17 11 165 24 236 9 51
-25 -52 -37 -110 -6 -33 -15 -62 -19 -65 -7 -4 -19 115 -21 210 l-1 50 -19
-75 c-33 -129 -52 -190 -60 -190 -4 0 -10 27 -14 60 -12 105 -33 75 -37 -54
-1 -45 -4 -33 -8 44 -5 83 -6 92 -8 41 -1 -38 -6 -61 -11 -55 -8 9 -53 142
-64 194 -17 74 -40 295 -46 435 l-6 160 -28 -60 c-47 -100 -97 -252 -133 -405
-36 -153 -37 -118 -3 80 78 447 330 813 732 1062 188 117 458 231 727 307 80
22 199 56 265 74 66 19 121 33 123 32 1 -1 -11 -53 -27 -116z m-2036 -47 c20
-118 10 -212 -32 -297 -80 -163 -412 -386 -732 -491 -115 -38 -106 -23 15 25
369 147 623 319 698 473 50 103 56 230 20 408 -4 23 -4 23 5 4 5 -12 17 -66
26 -122z m-2873 -468 c75 -70 201 -162 306 -224 40 -23 70 -45 68 -48 -8 -7
-162 80 -254 143 -101 69 -213 178 -241 233 -30 59 -26 60 17 5 21 -26 68 -75
104 -109z m2717 120 c-62 -69 -217 -197 -179 -150 15 20 192 175 199 176 3 0
-6 -12 -20 -26z m-2551 -417 c35 -52 104 -100 251 -177 l126 -65 43 -74 43
-73 -37 7 c-206 38 -484 233 -484 338 0 37 23 115 28 96 2 -8 16 -31 30 -52z
m2563 -11 c-17 -20 -111 -80 -116 -74 -3 2 16 20 41 39 25 19 50 42 56 53 7
13 13 15 21 7 7 -7 7 -15 -2 -25z m-2190 -158 c130 -68 216 -139 264 -220 50
-82 48 -78 36 -78 -6 0 -25 27 -42 61 -33 66 -46 72 -31 15 6 -20 9 -36 7 -36
-1 0 -21 31 -43 68 -43 73 -91 113 -224 186 -62 34 -90 56 -72 56 3 0 51 -23
105 -52z m2141 6 c15 -33 35 -55 70 -76 58 -36 63 -52 8 -31 -31 12 -49 30
-75 72 -32 50 -43 81 -30 81 3 0 15 -21 27 -46z m2084 -88 c-33 -136 -83 -271
-157 -421 -56 -111 -116 -215 -125 -215 -6 0 14 44 95 213 41 85 100 231 138
343 36 107 67 193 70 190 2 -2 -7 -52 -21 -110z m-4646 90 c0 -2 3 -11 6 -20
4 -11 -2 -19 -21 -26 -36 -14 -25 -26 79 -90 44 -27 97 -62 116 -79 29 -26 21
-23 -48 17 -120 68 -232 140 -232 150 0 4 19 18 43 29 42 22 57 27 57 19z
m1964 -51 c-4 -9 0 -15 7 -15 44 -1 -108 -53 -246 -85 -114 -26 -257 -45 -273
-36 -12 7 -10 11 9 25 22 15 22 16 3 16 -37 0 -305 -100 -334 -125 -8 -7 -26
-16 -40 -19 -59 -17 127 81 248 130 148 59 220 75 457 100 88 9 162 18 164 20
9 8 10 4 5 -11z m582 -19 c30 -22 10 -30 -48 -19 -50 9 -52 10 -28 21 34 15
53 14 76 -2z m1979 -33 c-21 -50 -86 -165 -90 -161 -2 2 0 21 5 43 5 22 10 56
10 75 0 31 5 37 43 57 23 11 43 22 45 22 1 1 -5 -16 -13 -36z m-4522 -52 l97
-64 -28 -51 c-16 -28 -27 -60 -25 -71 3 -14 2 -16 -5 -7 -6 10 -15 0 -30 -35
-11 -26 -23 -60 -27 -75 l-7 -27 -44 21 c-50 25 -57 37 -48 85 7 37 3 36 79
17 16 -4 14 0 -9 19 -27 23 -28 27 -16 61 11 35 13 36 48 31 l37 -6 -35 16
c-19 9 -43 24 -54 33 -18 16 -18 16 -12 -5 11 -33 -3 -90 -23 -96 -25 -6 -48
-112 -29 -134 11 -15 10 -16 -10 -10 -23 6 -24 5 -5 -15 l18 -21 -30 16 c-16
9 -43 27 -58 40 l-28 24 31 84 c33 92 102 240 110 236 3 -1 49 -31 103 -66z
m2658 8 c11 -5 25 -22 30 -37 11 -28 69 -249 69 -262 0 -4 -11 -10 -25 -12
-24 -5 -34 5 -16 16 11 7 0 57 -39 181 -35 107 -39 110 -128 100 -39 -5 -54
-4 -47 3 20 21 125 28 156 11z m-432 -34 c-7 -7 -263 -94 -267 -90 -3 3 83 41
163 71 53 20 116 32 104 19z m-1886 -56 c12 -7 42 -30 67 -53 25 -23 56 -49
69 -58 l23 -16 -26 -35 c-15 -19 -40 -40 -56 -47 -16 -7 -27 -16 -24 -22 3 -5
-5 -6 -20 -2 -15 3 -26 2 -26 -4 0 -15 -30 -8 -41 9 -7 12 -9 12 -9 -1 0 -9 6
-22 13 -29 10 -11 9 -12 -2 -6 -11 7 -13 0 -8 -34 7 -52 28 -86 70 -111 l32
-20 -33 0 c-18 0 -42 5 -54 11 -18 10 -19 8 -13 -13 l7 -23 -21 20 c-51 50
-48 191 10 408 11 41 11 42 42 26z m1098 -10 c-24 -11 -55 -22 -70 -25 -48
-12 -6 18 46 32 67 18 75 16 24 -7z m793 -6 c20 -40 40 -172 32 -215 -8 -44
-19 -54 -81 -70 -28 -7 -53 -16 -56 -21 -3 -4 -13 2 -21 15 -15 22 -68 168
-68 185 0 5 38 19 85 32 49 14 84 29 82 35 -5 14 -67 9 -139 -11 -44 -12 -58
-20 -58 -34 0 -18 55 -191 71 -220 6 -12 2 -19 -18 -28 -14 -6 -27 -10 -28 -9
-5 5 -42 138 -55 196 -7 28 -17 52 -24 52 -7 0 -25 -13 -41 -30 -27 -28 -28
-32 -22 -102 4 -40 9 -84 12 -98 3 -14 -7 9 -21 50 -14 41 -24 90 -22 110 3
30 11 40 63 75 47 31 255 115 287 115 4 0 14 -12 22 -27z m-1053 -121 c37 -41
38 -59 2 -32 -16 11 -44 22 -63 25 l-35 5 32 -10 c30 -10 58 -34 33 -28 -13 3
-14 -49 -4 -334 l5 -157 -261 2 c-207 2 -262 -1 -269 -11 -7 -11 -11 -10 -25
3 -20 20 -19 13 -17 270 3 225 5 238 56 271 44 29 84 33 303 31 l214 -2 29
-33z m-646 -182 c-6 -22 -8 -23 -16 -7 -6 9 -7 22 -4 27 3 6 2 10 -4 10 -6 0
-6 11 -1 30 10 35 10 32 11 68 1 15 6 -2 11 -38 5 -36 6 -76 3 -90z m860 128
c4 4 6 1 3 -7 -2 -8 -10 -17 -18 -19 -7 -3 -10 0 -6 6 3 6 2 13 -4 17 -5 3
-10 12 -10 18 0 7 6 4 14 -5 7 -10 17 -14 21 -10z m58 15 c-7 -2 -21 -2 -30 0
-10 3 -4 5 12 5 17 0 24 -2 18 -5z m1316 -84 c-25 -16 -32 -9 -13 12 12 13 20
16 22 9 3 -7 -2 -16 -9 -21z m-2968 -22 l27 -22 -18 -38 c-13 -29 -19 -34 -24
-22 -3 9 2 28 12 43 l17 27 -32 -23 c-44 -31 -73 -70 -73 -97 0 -25 24 -50 39
-41 5 4 2 -12 -6 -34 -16 -40 -16 -40 -37 -22 -26 24 -42 19 -61 -18 -19 -37
-19 -55 0 -74 22 -21 42 -10 56 31 6 19 13 32 15 30 7 -6 -24 -87 -39 -102
-12 -12 -17 -12 -35 1 -18 13 -21 12 -24 -3 -3 -16 -5 -15 -16 4 -10 17 -8 34
9 89 40 129 128 294 157 294 4 0 19 -10 33 -23z m118 -70 c29 -18 57 -43 62
-56 12 -29 -5 -120 -32 -172 -22 -43 -73 -89 -99 -89 -17 0 -119 36 -128 45
-2 2 2 20 9 40 13 35 15 36 52 29 28 -4 37 -3 33 5 -4 6 -21 11 -38 11 -20 0
-28 4 -25 13 53 123 77 185 77 201 0 22 13 18 89 -27z m438 -12 c9 -25 -4 -29
-17 -6 -7 15 -7 21 0 21 6 0 13 -7 17 -15z m2440 -17 c15 -7 28 -18 28 -23 0
-6 3 -14 6 -20 7 -11 79 -239 79 -249 0 -3 -11 -6 -25 -6 -17 0 -23 4 -19 15
3 8 -9 69 -28 135 l-33 120 -40 14 c-22 8 -56 19 -75 25 -32 10 -31 10 22 7
31 -3 70 -10 85 -18z m-3037 -32 c0 -10 -28 -7 -35 4 -11 18 5 31 21 16 8 -8
14 -17 14 -20z m2635 -13 c-4 -21 -16 -75 -26 -121 -11 -45 -17 -92 -14 -105
4 -14 3 -18 -3 -9 -6 9 -11 7 -19 -11 -8 -17 -23 -26 -50 -31 -21 -4 -50 -9
-64 -12 -23 -4 -27 0 -38 36 -15 49 -9 60 32 61 29 2 29 2 -8 8 -30 5 -43 12
-53 34 -16 33 -9 47 25 47 22 0 24 2 13 15 -9 11 -22 14 -44 9 -17 -3 -32 -7
-34 -9 -1 -1 6 -31 16 -66 48 -162 54 -188 49 -203 -3 -8 -23 -24 -45 -35 -21
-11 -44 -27 -52 -36 -11 -14 -17 -7 -46 59 -18 41 -43 104 -56 140 l-23 65 25
26 c28 30 74 56 175 99 59 24 211 73 238 75 4 1 5 -16 2 -36z m542 15 c-3 -8
-6 -5 -6 6 -1 11 2 17 5 13 3 -3 4 -12 1 -19z m-1387 -88 c0 -5 13 -10 28 -10
26 0 28 -2 24 -35 -4 -30 -7 -33 -22 -25 -13 7 -21 7 -25 0 -4 -6 -11 -8 -16
-5 -12 8 -12 85 1 85 6 0 10 -4 10 -10z m-55 -10 c3 -5 -3 -10 -14 -10 -10 0
-29 -12 -40 -27 l-20 -28 -1 27 c0 37 57 67 75 38z m-1095 -20 c0 -5 -8 -10
-18 -10 -23 0 -42 -19 -42 -42 0 -28 -19 -21 -26 9 -5 19 -2 30 11 40 22 15
75 18 75 3z m82 -1 c-13 -5 -21 -13 -18 -18 3 -5 2 -20 -3 -33 -8 -20 -10 -17
-10 20 -1 39 1 42 27 41 26 0 27 0 4 -10z m1208 3 c0 -13 -30 -52 -41 -52 -5
0 -9 14 -9 30 0 25 4 30 25 30 14 0 25 -3 25 -8z m-2002 -24 c-4 -27 -28 -36
-28 -10 0 20 8 32 22 32 5 0 8 -10 6 -22z m2942 -28 c0 -5 -4 -10 -10 -10 -5
0 -10 5 -10 10 0 6 5 10 10 10 6 0 10 -4 10 -10z m1310 -19 c-5 -11 -15 -23
-22 -27 -7 -5 -8 -2 -3 7 21 37 44 55 25 20z m-3685 -92 c-14 -35 -40 -109
-57 -164 -25 -78 -33 -94 -36 -71 -2 16 2 50 8 75 12 49 98 236 106 229 2 -3
-7 -33 -21 -69z m1394 55 c36 -8 40 -27 8 -41 -18 -9 -25 -6 -40 13 -23 30
-44 32 -23 2 23 -32 20 -41 -9 -22 -29 19 -89 21 -110 4 -18 -15 -20 -51 -3
-68 7 -7 25 -12 41 -12 l29 0 -7 -82 c-4 -46 -9 -86 -12 -90 -7 -12 -48 -9
-61 4 -7 7 -12 8 -12 2 0 -20 25 -34 60 -34 28 0 40 5 49 23 10 20 11 20 8
-10 -2 -19 1 -33 7 -33 6 0 4 -5 -4 -10 -23 -15 -93 -12 -118 6 -21 14 -22 21
-22 168 0 166 -2 159 60 179 22 8 123 8 159 1z m-1169 -18 c0 -8 -4 -18 -10
-21 -5 -3 -11 -18 -11 -33 -2 -24 -2 -25 -6 -4 -11 56 -108 51 -101 -6 2 -22
8 -28 36 -30 l32 -3 0 -85 c0 -91 -9 -106 -49 -84 -23 12 -28 1 -9 -18 15 -15
61 -15 76 0 7 7 13 35 13 63 1 28 4 38 6 23 2 -16 9 -28 14 -28 5 0 9 -18 9
-40 0 -46 -18 -60 -78 -60 -65 0 -74 19 -80 165 -6 163 0 175 93 175 50 0 65
-3 65 -14z m-62 -53 c2 -8 -6 -13 -22 -13 -17 0 -26 5 -26 16 0 19 41 16 48
-3z m2010 12 c-5 -5 -215 -75 -225 -75 -3 0 -3 5 -1 12 3 7 51 24 109 39 109
29 126 32 117 24z m-898 -20 c0 -9 -9 -15 -25 -15 -16 0 -25 6 -25 15 0 9 9
15 25 15 16 0 25 -6 25 -15z m-928 -131 c-3 -146 8 -180 61 -204 23 -10 34
-19 24 -19 -29 -1 -85 26 -96 47 -16 30 -15 310 1 294 7 -7 11 -48 10 -118z
m-852 -72 c6 -132 10 -154 34 -207 15 -33 39 -73 54 -89 23 -24 24 -27 5 -17
-41 21 -93 94 -114 161 -24 78 -29 217 -10 273 7 21 16 36 19 32 3 -3 9 -72
12 -153z m3030 132 c12 -29 13 -101 3 -90 -4 4 -13 32 -19 62 -11 56 -1 74 16
28z m-2323 -16 c-3 -7 -5 -2 -5 12 0 14 2 19 5 13 2 -7 2 -19 0 -25z m356 -33
c-3 -14 3 -39 15 -59 15 -26 17 -33 6 -29 -30 11 -57 96 -38 116 13 12 21 -3
17 -28z m112 -6 c5 -5 -6 -9 -28 -9 -35 0 -45 8 -30 23 8 8 43 -1 58 -14z m85
1 c-6 -11 -12 -20 -14 -20 -2 0 -2 9 1 20 3 11 9 20 15 20 5 0 4 -9 -2 -20z
m-1215 -17 c17 -21 25 -45 30 -93 3 -36 13 -86 21 -112 10 -30 12 -53 7 -63
-13 -23 -58 63 -71 135 -14 72 -22 160 -16 160 3 0 16 -12 29 -27z m1346 18
c-8 -5 -10 -14 -6 -21 6 -9 4 -11 -5 -5 -8 5 -11 3 -8 -6 14 -38 -65 -143
-129 -170 -17 -7 -29 -17 -27 -21 3 -4 -42 -8 -100 -8 -62 0 -106 4 -106 10 0
5 8 7 18 3 13 -5 11 1 -8 22 l-25 29 29 -22 c21 -16 43 -22 82 -22 64 0 92 10
130 45 16 15 39 34 51 42 12 8 28 30 35 49 6 19 15 34 19 34 4 0 10 11 13 25
4 17 13 25 29 25 16 0 18 -3 8 -9z m1144 -77 c-20 -26 -43 -61 -52 -78 -9 -17
-24 -42 -34 -55 l-19 -24 0 34 c1 60 33 114 78 132 22 9 43 21 47 27 3 5 8 10
11 10 2 0 -12 -21 -31 -46z m69 -36 c-30 -45 -59 -97 -66 -115 -13 -35 -44
-45 -54 -19 -7 18 23 87 70 160 32 50 39 56 70 56 l34 0 -54 -82z m120 64 c6
-10 -33 -96 -81 -179 -28 -47 -42 -62 -63 -65 -27 -4 -28 -4 -16 31 6 20 34
78 61 128 39 73 55 93 72 93 12 0 24 -4 27 -8z m216 -164 c-11 -24 -18 -34
-14 -23 3 11 11 61 17 110 l12 90 3 -67 c2 -52 -2 -77 -18 -110z m-1772 155
c-10 -2 -28 -2 -40 0 -13 2 -5 4 17 4 22 1 32 -1 23 -4z m239 -15 c-3 -8 -6
-5 -6 6 -1 11 2 17 5 13 3 -3 4 -12 1 -19z m20 -40 c-2 -13 -4 -3 -4 22 0 25
2 35 4 23 2 -13 2 -33 0 -45z m1328 -53 c-1 -22 -8 -53 -16 -69 -14 -29 -105
-113 -113 -105 -3 2 15 39 39 81 23 42 51 100 61 129 16 48 18 51 24 29 4 -14
6 -43 5 -65z m-1075 -1 c8 -11 3 -9 -13 5 -15 14 -27 34 -26 45 1 19 2 18 12
-5 7 -14 19 -35 27 -45z m-1437 11 c-16 -34 -16 -35 20 -105 20 -39 32 -68 26
-65 -15 10 -67 119 -70 146 -4 45 1 59 21 59 19 0 19 -1 3 -35z m952 -25 c-3
-5 -21 -9 -38 -9 l-32 2 35 7 c19 4 36 8 38 9 2 0 0 -3 -3 -9z m-991 -36 c3
-8 2 -12 -4 -9 -6 3 -10 10 -10 16 0 14 7 11 14 -7z m593 -54 c13 0 23 -5 23
-11 0 -6 -6 -9 -14 -6 -11 4 -14 -2 -11 -28 l3 -35 -42 29 c-22 16 -51 40 -64
54 l-23 24 53 -13 c29 -8 63 -14 75 -14z m2163 -10 c-6 -11 -13 -20 -16 -20
-2 0 0 9 6 20 6 11 13 20 16 20 2 0 0 -9 -6 -20z m-2441 -47 c14 -12 74 -48
134 -78 59 -31 107 -62 107 -70 0 -18 -61 -35 -127 -35 -44 0 -98 13 -188 45
-14 5 -12 -1 10 -20 l30 -27 -50 25 c-27 14 -58 34 -69 46 -18 20 -18 21 43
87 33 37 61 72 61 78 0 6 6 2 12 -8 6 -11 23 -30 37 -43z m458 -5 c-2 -13 -4
-5 -4 17 -1 22 1 32 4 23 2 -10 2 -28 0 -40z m-251 -55 c-5 -5 -96 46 -96 54
0 2 23 -8 50 -23 28 -15 48 -29 46 -31z m3353 10 c-88 -145 -284 -358 -429
-465 -70 -53 -210 -136 -210 -125 0 2 39 31 88 63 179 121 329 261 444 414
102 136 155 192 107 113z m-3115 -12 c3 -5 22 -12 42 -16 25 -4 33 -10 27 -16
-7 -7 -23 -7 -47 -1 l-36 10 0 -71 c0 -54 5 -80 20 -104 23 -38 19 -42 -10
-11 -17 19 -20 19 -20 4 0 -9 11 -27 24 -40 19 -20 38 -25 112 -31 49 -4 94
-11 99 -15 6 -5 21 -11 35 -14 14 -3 -20 -3 -75 -1 -113 5 -168 18 -196 46
-17 17 -19 34 -19 137 0 65 3 122 7 125 9 10 31 9 37 -2z m446 -25 c-18 -17
-132 -28 -127 -12 3 10 54 21 117 24 21 2 22 0 10 -12z m-292 -13 c-16 -2 -28
-9 -28 -14 0 -6 -5 -7 -10 -4 -19 11 1 25 33 24 30 -2 31 -2 5 -6z m269 -110
c-2 -21 -4 -6 -4 32 0 39 2 55 4 38 2 -18 2 -50 0 -70z m-1010 -60 l6 -51 49
-6 c49 -7 75 -24 106 -72 7 -10 5 -4 -4 14 -8 19 -13 36 -11 39 7 6 47 -15 76
-41 13 -11 21 -15 17 -8 -4 6 -3 12 2 12 12 0 35 -27 56 -65 10 -16 14 -21 11
-10 -16 45 -17 55 -7 55 6 0 28 -23 49 -52 26 -36 39 -47 41 -36 2 9 -2 27 -8
38 -25 46 15 35 46 -13 58 -89 92 -144 104 -166 19 -38 59 -161 52 -161 -9 0
-44 56 -66 108 -24 54 -31 49 -11 -8 23 -67 18 -69 -33 -14 -69 75 -202 196
-167 152 17 -20 59 -71 93 -114 35 -43 79 -108 97 -146 32 -69 28 -71 -28 -13
-21 22 -26 24 -18 9 21 -43 -27 -51 -121 -21 -27 8 -45 11 -42 6 15 -25 -23
-4 -53 29 -33 36 -36 23 -5 -25 8 -13 12 -23 9 -23 -10 0 -82 105 -119 174
-21 40 -38 62 -38 51 0 -41 30 -116 71 -177 l43 -63 -35 26 c-54 42 -131 164
-163 259 -31 92 -45 245 -32 335 9 58 24 48 33 -22z m2072 -123 c21 -10 41
-17 43 -14 7 6 25 -41 38 -96 5 -25 10 -98 10 -164 l0 -119 -35 69 c-19 38
-46 83 -59 99 -25 30 -25 30 5 -49 16 -43 27 -81 25 -83 -3 -3 -21 8 -42 23
l-37 29 7 -73 c4 -39 4 -72 -1 -72 -13 1 -44 26 -117 98 -70 68 -72 68 -23 -4
31 -46 47 -114 27 -114 -7 0 -28 14 -47 30 -18 17 -40 30 -47 30 -18 0 -60 66
-81 126 -32 93 -12 250 35 279 26 16 76 23 168 24 74 1 101 -3 131 -19z m616
-10 c-3 -5 -12 -10 -18 -10 -7 0 -6 4 3 10 19 12 23 12 15 0z m-1221 -158 c0
-53 -4 -114 -9 -135 -5 -28 -3 -43 9 -62 20 -30 6 -33 -20 -4 -10 11 -27 25
-37 31 -16 8 -17 7 -7 -11 6 -12 7 -21 3 -21 -18 0 -113 61 -129 82 -12 17
-15 18 -10 5 14 -43 18 -67 9 -67 -10 0 -81 72 -108 110 -13 18 -16 20 -10 5
12 -34 18 -95 9 -95 -5 0 -39 30 -77 68 -83 81 -68 45 37 -87 6 -7 -7 -2 -28
13 -22 14 -41 24 -43 22 -3 -2 8 -23 23 -45 15 -23 24 -44 21 -47 -12 -12 -76
32 -151 105 l-79 76 36 -67 c20 -38 33 -68 29 -68 -11 0 -61 47 -96 90 -28 33
-29 34 -23 8 4 -14 10 -34 13 -45 3 -10 -11 0 -30 21 -42 46 -44 43 -12 -24
30 -62 14 -56 -61 22 -47 51 -91 121 -108 176 -6 22 -5 23 17 17 12 -4 41 -19
63 -33 22 -15 42 -27 45 -27 3 0 12 -4 19 -9 8 -5 4 5 -9 23 l-23 33 24 -7
c13 -4 37 -17 53 -28 28 -20 28 -20 18 0 -10 18 -7 20 32 22 32 1 52 -5 82
-25 21 -14 36 -23 32 -19 -3 4 1 15 10 24 16 17 18 17 44 -7 l27 -25 -5 24
c-6 27 -10 30 40 -36 14 -18 14 -17 5 18 -12 46 -6 57 31 57 22 0 30 -6 39
-30 11 -33 26 -42 16 -10 -7 22 -5 23 19 14 9 -3 13 -11 9 -17 -3 -5 -1 -7 5
-3 6 3 29 -13 52 -36 l41 -43 -35 55 c-43 65 -44 64 82 90 128 27 117 35 116
-78z m-979 47 c11 -17 -1 -21 -15 -4 -8 9 -8 15 -2 15 6 0 14 -5 17 -11z
m2565 -133 c0 -2 -7 -7 -16 -10 -8 -3 -12 -2 -9 4 6 10 25 14 25 6z m-1253
-191 l25 -50 -27 25 c-33 30 -69 85 -79 120 -7 23 -4 22 24 -10 17 -19 42 -57
57 -85z m-1625 -159 c-30 -16 -72 -90 -72 -126 0 -16 -7 -30 -16 -34 -8 -3
-12 -12 -9 -18 4 -7 -1 -4 -9 6 -19 23 -19 29 -5 81 15 55 64 105 103 105 31
-1 31 -1 8 -14z m54 -22 c-4 -9 -12 -37 -18 -62 -11 -43 -12 -44 -21 -21 -10
23 -10 23 -16 -10 -3 -19 -12 -36 -18 -39 -16 -5 -18 80 -2 109 17 33 87 54
75 23z m159 -18 c18 -8 38 -23 43 -33 15 -28 22 -95 11 -114 -8 -16 -5 -17 22
-9 17 5 43 17 56 25 14 9 27 14 30 12 10 -10 -49 -40 -105 -53 -62 -15 -170
-18 -189 -6 -30 19 -21 136 14 174 20 22 71 23 118 4z m1240 -14 c-29 -16 -29
-17 -7 -20 18 -3 22 -8 16 -25 -18 -57 -25 -69 -39 -63 -10 3 -15 -1 -15 -13
0 -29 -11 -52 -21 -45 -14 8 -11 80 5 117 18 43 43 67 69 67 20 -1 19 -3 -8
-18z m175 -14 c0 -2 -8 -25 -19 -52 -10 -28 -21 -44 -25 -37 -8 12 -27 15 -25
4 6 -35 -3 -73 -16 -73 -8 0 -15 8 -15 18 0 26 -11 34 -26 21 -21 -18 -27 11
-11 56 16 46 45 65 100 65 20 0 37 -1 37 -2z m153 -48 c28 -31 38 -92 17 -105
-23 -14 -8 -23 22 -13 17 6 61 41 97 77 61 62 63 63 33 20 -56 -83 -129 -124
-240 -135 l-67 -7 53 42 c31 25 52 49 52 61 0 11 -4 20 -10 20 -5 0 -10 -7
-10 -16 0 -8 -4 -13 -9 -10 -5 3 -11 -1 -15 -9 -6 -16 -44 -20 -61 -7 -5 4
-11 22 -13 39 -5 49 37 87 86 80 24 -4 47 -17 65 -37z"/>
<path d="M1870 7310 l0 -240 43 -1 c253 -5 4151 -8 4205 -3 l72 6 0 239 0 239
-2160 0 -2160 0 0 -240z m1420 145 c34 -17 37 -27 15 -45 -12 -10 -21 -10 -41
-1 -34 15 -69 14 -84 -4 -20 -24 -4 -43 57 -70 78 -35 93 -50 93 -97 0 -91
-127 -129 -215 -64 -19 14 -19 15 -1 35 17 18 20 19 41 5 14 -9 40 -14 67 -12
38 3 43 6 43 28 0 21 -11 30 -64 55 -35 17 -69 39 -77 50 -29 39 -8 106 40
125 34 14 94 11 126 -5z m200 -50 l0 -65 55 0 55 0 0 66 0 65 28 -3 27 -3 3
-157 3 -158 -31 0 -30 0 0 70 0 70 -55 0 -55 0 0 -70 0 -70 -30 0 -30 0 0 160
0 160 30 0 30 0 0 -65z m478 38 c-2 -23 -8 -29 -35 -31 l-33 -3 0 -105 0 -104
35 0 c31 0 35 -3 35 -25 l0 -25 -105 0 -105 0 0 25 c0 22 4 25 35 25 l35 0 0
105 0 105 -35 0 c-32 0 -35 2 -35 30 l0 30 106 0 105 0 -3 -27z m340 0 c-3
-27 -5 -28 -70 -31 l-68 -3 0 -39 0 -40 60 0 c57 0 60 -1 60 -25 0 -24 -3 -25
-60 -25 l-60 0 0 -65 0 -65 -35 0 -35 0 0 153 c0 85 3 157 7 160 3 4 51 7 105
7 l99 0 -3 -27z m332 -3 c0 -29 -2 -30 -45 -30 l-45 0 0 -130 0 -130 -35 0
-35 0 0 130 0 130 -45 0 c-47 0 -63 14 -51 45 4 12 29 15 131 15 l125 0 0 -30z
m158 -50 l37 -80 37 80 c32 70 40 80 62 80 14 0 26 -5 26 -10 0 -6 -20 -51
-45 -100 -38 -77 -45 -98 -45 -150 l0 -60 -35 0 -35 0 0 63 c0 55 -6 72 -50
156 -28 51 -50 95 -50 97 0 2 14 4 31 4 28 0 33 -5 67 -80z"/>
<path d="M4815 6299 c-9 -17 -15 -33 -13 -35 3 -2 12 12 21 31 21 43 13 47 -8
4z"/>
<path d="M2180 6785 l0 -36 78 3 77 3 3 33 3 32 -80 0 -81 0 0 -35z"/>
<path d="M2183 6694 c-16 -7 -17 -46 -1 -62 14 -14 126 -16 146 -3 8 5 12 21
10 37 -3 29 -4 29 -73 31 -38 1 -76 0 -82 -3z"/>
<path d="M3741 5860 c-12 -7 -12 -11 1 -24 15 -14 17 -14 22 1 8 21 -5 35 -23
23z"/>
<path d="M2992 5693 c-8 -3 -5 -10 10 -23 20 -15 21 -20 8 -35 -8 -10 -23 -15
-37 -12 -19 3 -23 0 -23 -20 0 -18 9 -28 34 -38 66 -28 120 14 101 77 -15 48
-51 68 -93 51z"/>
<path d="M2947 5533 c-9 -2 -15 -8 -12 -13 3 -5 -16 -12 -42 -15 -67 -9 -75
-13 -27 -14 24 -1 64 9 95 23 39 18 47 25 29 24 -14 0 -33 -2 -43 -5z"/>
<path d="M2531 5245 c-1 -28 31 -95 45 -95 4 0 1 7 -6 15 -6 8 -18 36 -25 62
-11 41 -13 43 -14 18z"/>
<path d="M3050 4778 c0 -18 27 -106 37 -121 5 -7 10 4 13 28 l5 40 60 -79 c63
-83 77 -86 51 -9 -31 90 -91 153 -146 153 -11 0 -20 -6 -20 -12z"/>
<path d="M4055 4751 c-91 -52 -173 -163 -191 -257 l-7 -39 23 20 c12 11 36 40
53 65 17 25 56 74 86 109 l55 63 9 -33 9 -34 29 55 c15 30 28 61 29 68 0 21
-43 13 -95 -17z"/>
<path d="M3432 3920 c-19 -4 -39 -13 -45 -19 -17 -17 10 -60 53 -89 46 -30 56
-53 40 -92 -24 -57 -129 -96 -176 -65 -13 8 -24 22 -24 31 0 21 -24 12 -28
-10 -5 -24 34 -63 68 -71 42 -9 115 14 157 50 37 32 39 32 63 16 54 -37 128
-61 190 -61 57 0 65 3 96 34 44 44 44 61 0 62 -30 0 -35 -3 -40 -28 -5 -27 -8
-28 -63 -28 -140 0 -246 105 -160 159 76 47 98 98 47 112 -34 9 -137 9 -178
-1z m86 -37 c-15 -2 -42 -2 -60 0 -18 2 -6 4 27 4 33 0 48 -2 33 -4z"/>
<path d="M3940 3873 c0 -5 7 -17 15 -27 13 -17 15 -18 15 -3 0 25 16 21 25 -5
l8 -23 4 23 c5 27 33 29 40 2 6 -22 23 -27 23 -7 0 27 -36 47 -83 47 -26 0
-47 -3 -47 -7z"/>
<path d="M3518 3566 c-17 -12 -17 -14 0 -30 23 -20 52 -21 78 -1 18 14 18 14
-9 15 -15 0 -30 7 -33 15 -7 18 -14 18 -36 1z"/>
<path d="M6736 3313 c-12 -60 -27 -166 -23 -169 4 -5 23 81 33 149 7 50 -1 65
-10 20z"/>
<path d="M6811 3258 c-5 -13 -15 -39 -22 -58 -9 -21 -12 -53 -9 -80 l5 -45 17
70 c24 100 30 135 24 135 -4 0 -10 -10 -15 -22z"/>
<path d="M2550 3136 c0 -19 39 -31 53 -17 9 9 8 14 -3 21 -22 14 -50 12 -50
-4z"/>
<path d="M4693 2900 c-26 -40 17 -97 59 -81 34 13 41 36 23 72 -19 35 -63 40
-82 9z m38 -13 c-13 -13 -26 -3 -16 12 3 6 11 8 17 5 6 -4 6 -10 -1 -17z"/>
<path d="M3376 2890 c-55 -10 -68 -32 -64 -108 2 -47 0 -61 -9 -57 -21 8 -14
-13 9 -29 31 -22 349 -24 367 -2 8 9 11 45 9 97 -3 78 -5 84 -28 96 -28 14
-217 16 -284 3z m274 -30 c4 -7 7 -20 6 -29 -2 -13 -27 -18 -147 -26 -132 -9
-144 -12 -147 -30 -2 -18 -2 -18 8 -2 7 11 23 17 48 16 33 0 35 -1 14 -10 -13
-5 -27 -7 -31 -4 -4 2 -8 -2 -8 -10 0 -10 11 -15 31 -15 23 0 27 -3 16 -10
-10 -6 0 -10 35 -13 30 -2 13 -4 -42 -5 l-93 -2 0 58 c0 72 15 89 85 95 87 8
217 0 225 -13z m-77 -137 c-7 -2 -19 -2 -25 0 -7 3 -2 5 12 5 14 0 19 -2 13
-5z"/>
<path d="M3628 2663 c-18 -3 -25 -9 -21 -19 3 -8 1 -14 -3 -15 -5 0 -18 -2
-29 -4 -11 -3 -54 -7 -94 -10 -41 -3 -77 -8 -80 -10 -2 -3 -10 8 -17 25 -12
28 -17 30 -64 30 -44 0 -52 -3 -62 -26 -9 -19 -9 -33 -1 -55 11 -28 10 -29
-18 -29 -21 0 -29 -5 -28 -17 0 -11 3 -13 6 -5 10 25 19 11 15 -23 -3 -22 -8
-33 -16 -28 -6 3 -5 0 2 -8 10 -11 63 -15 251 -17 280 -4 267 -9 264 102 -2
62 -6 74 -28 94 -15 12 -31 21 -38 21 -7 -1 -24 -4 -39 -6z m-280 -38 c2 -18
2 -18 -8 -2 -15 23 -30 22 -30 -3 0 -11 -4 -20 -9 -20 -15 0 -22 16 -15 35 9
24 58 16 62 -10z m312 5 c0 -11 -7 -20 -15 -20 -15 0 -21 21 -8 33 12 13 23 7
23 -13z m50 -100 c0 -5 -8 -10 -17 -10 -15 0 -16 2 -3 10 19 12 20 12 20 0z"/>
<path d="M4642 2514 c-35 -28 -42 -66 -18 -99 10 -14 21 -17 50 -12 31 5 36 3
36 -14 0 -15 -7 -19 -31 -19 -20 0 -29 -4 -26 -12 2 -7 14 -12 26 -11 11 2 21
-2 21 -7 0 -6 -7 -10 -16 -10 -10 0 -14 -7 -12 -22 4 -28 35 -35 63 -15 19 14
18 17 -14 123 -18 60 -36 112 -40 116 -3 4 -21 -4 -39 -18z m37 -50 c2 -20
-35 -22 -47 -3 -10 15 -8 21 11 34 20 14 22 14 29 -2 3 -10 7 -23 7 -29z"/>
<path d="M3145 1140 c10 -11 20 -20 23 -20 3 0 -3 9 -13 20 -10 11 -20 20 -23
20 -3 0 3 -9 13 -20z"/>
<path d="M4030 1276 c0 -2 8 -10 18 -17 15 -13 16 -12 3 4 -13 16 -21 21 -21
13z"/>
<path d="M4152 1245 c0 -16 2 -22 5 -12 2 9 2 23 0 30 -3 6 -5 -1 -5 -18z"/>
<path d="M3077 819 c12 -44 -42 -94 -68 -63 -15 18 -29 9 -29 -20 0 -21 4 -23
43 -21 77 4 87 11 87 60 0 33 -5 47 -19 54 -16 9 -18 8 -14 -10z"/>
</g>
</svg>
